<?xml version="1.0" encoding="UTF-8"?>
<svg width="150px" height="150px" viewBox="0 0 150 150" version="1.1" xmlns="http://www.w3.org/2000/svg" xmlns:xlink="http://www.w3.org/1999/xlink">
    <!-- Generator: Sketch 55.2 (78181) - https://sketchapp.com -->
    <title>About_Icon</title>
    <desc>Created with Sketch.</desc>
    <defs>
        <polygon id="path-1" points="0 7.05882353e-05 149.844635 7.05882353e-05 149.844635 149.847953 0 149.847953"></polygon>
    </defs>
    <g id="About_Icon" stroke="none" stroke-width="1" fill="none" fill-rule="evenodd">
        <g>
            <mask id="mask-2" fill="white">
                <use xlink:href="#path-1"></use>
            </mask>
            <g id="Clip-2"></g>
            <path d="M85.0164,76.5388941 C80.9787529,80.6788941 78.9599294,83.4036 78.9599294,88.0483059 L68.2587529,88.0483059 C67.6552235,79.8706588 70.3799294,75.7341882 75.0246353,71.0894824 C79.4646353,66.7483059 84.6140471,63.6177176 84.6140471,57.5612471 C84.6140471,51.0000706 79.9693412,47.9718353 74.3152235,47.9718353 C68.8658118,47.9718353 65.0293412,51.1024235 62.3046353,55.0377176 L52.0093412,49.0836 C56.9540471,42.5224235 63.5152235,37.0694824 75.0246353,37.0694824 C87.5399294,37.0694824 97.8352235,43.5318353 97.8352235,55.8459529 C97.8352235,65.9400706 90.4658118,71.1918353 85.0164,76.5388941 M73.6093412,112.778894 C68.8658118,112.778894 65.0293412,108.8436 65.0293412,104.198894 C65.0293412,99.4553647 68.8658118,95.5165412 73.6093412,95.5165412 C78.3528706,95.5165412 82.1893412,99.4553647 82.1893412,104.198894 C82.1893412,108.8436 78.3528706,112.778894 73.6093412,112.778894 M74.9222824,7.05882353e-05 C33.5434588,7.05882353e-05 -7.05882353e-05,33.5471294 -7.05882353e-05,74.9259529 C-7.05882353e-05,116.304776 33.5434588,149.847953 74.9222824,149.847953 C116.301106,149.847953 149.844635,116.304776 149.844635,74.9259529 C149.844635,33.5471294 116.301106,7.05882353e-05 74.9222824,7.05882353e-05" id="Fill-1" fill="#191D4A" mask="url(#mask-2)"></path>
        </g>
    </g>
</svg>