<?xml version="1.0" encoding="UTF-8"?>
<svg width="150px" height="150px" viewBox="0 0 150 150" version="1.1" xmlns="http://www.w3.org/2000/svg" xmlns:xlink="http://www.w3.org/1999/xlink">
    <!-- Generator: Sketch 55.2 (78181) - https://sketchapp.com -->
    <title>Fundraising_Icon</title>
    <desc>Created with Sketch.</desc>
    <defs>
        <polygon id="path-1" points="7.05882353e-05 0.000282352941 149.848235 0.000282352941 149.848235 149.848165 7.05882353e-05 149.848165"></polygon>
    </defs>
    <g id="Fundraising_Icon" stroke="none" stroke-width="1" fill="none" fill-rule="evenodd">
        <g>
            <mask id="mask-2" fill="white">
                <use xlink:href="#path-1"></use>
            </mask>
            <g id="Clip-2"></g>
            <path d="M79.6800706,104.406988 L79.6800706,113.311694 L71.2906588,113.311694 L71.2906588,104.579929 C64.2036,103.803459 56.8518353,100.602282 53.0506588,96.1940471 L58.8424235,89.1916941 C62.3859529,93.0811059 69.1306588,95.5026353 74.7494824,95.5026353 C81.2330118,95.5026353 85.4718353,92.6473412 85.4718353,87.7199294 C85.4718353,83.9152235 82.5318353,81.4093412 76.0483059,79.5916941 L71.8977176,78.4696941 C59.5341882,75.2716941 54.8647765,69.8226353 54.8647765,60.8328706 C54.8647765,52.5320471 61.2636,46.5669882 71.2906588,45.2681647 L71.2906588,36.5364 L79.6800706,36.5364 L79.6800706,45.1834588 C85.9024235,46.0481647 91.9553647,48.6422824 96.1059529,52.7932235 L90.2259529,59.6222824 C87.3741882,56.7673412 80.7177176,54.1728706 75.6141882,54.1728706 C69.9953647,54.1728706 66.1059529,56.5093412 66.1059529,60.3991059 C66.1059529,64.2916941 69.3036,66.4516941 75.2683059,68.0928706 L79.5918353,69.2187529 C91.7824235,72.3316941 96.7977176,78.2967529 96.7977176,87.1167529 C96.7977176,96.4516941 90.3141882,102.850518 79.6800706,104.406988 M74.9224235,0.000282352941 C33.5436,0.000282352941 7.05882353e-05,33.5469882 7.05882353e-05,74.9258118 C7.05882353e-05,116.304635 33.5436,149.848165 74.9224235,149.848165 C116.301247,149.848165 149.848306,116.304635 149.848306,74.9258118 C149.848306,33.5469882 116.301247,0.000282352941 74.9224235,0.000282352941" id="Fill-1" fill="#191D4A" mask="url(#mask-2)"></path>
        </g>
    </g>
</svg>