<?xml version="1.0" encoding="UTF-8"?>
<svg width="150px" height="150px" viewBox="0 0 150 150" version="1.1" xmlns="http://www.w3.org/2000/svg" xmlns:xlink="http://www.w3.org/1999/xlink">
    <!-- Generator: Sketch 55.2 (78181) - https://sketchapp.com -->
    <title>Gallery_Icon</title>
    <desc>Created with Sketch.</desc>
    <defs>
        <polygon id="path-1" points="7.05882353e-05 0.151478873 149.844706 0.151478873 149.844706 149.647887 7.05882353e-05 149.647887"></polygon>
    </defs>
    <g id="Gallery_Icon" stroke="none" stroke-width="1" fill="none" fill-rule="evenodd">
        <g>
            <g id="Group-3" transform="translate(0.000000, 0.200704)">
                <mask id="mask-2" fill="white">
                    <use xlink:href="#path-1"></use>
                </mask>
                <g id="Clip-2"></g>
                <path d="M118.348306,108.869789 C118.348306,111.450775 116.251835,113.542324 113.664776,113.542324 L36.1730118,113.542324 C33.5859529,113.542324 31.4894824,111.450775 31.4894824,108.869789 L31.4894824,41.0666197 C31.4894824,38.4856338 33.5859529,36.3944366 36.1730118,36.3944366 L113.664776,36.3944366 C116.251835,36.3944366 118.348306,38.4856338 118.348306,41.0666197 L118.348306,108.869789 Z M74.9224235,0.151478873 C33.5436,0.151478873 7.05882353e-05,33.6162676 7.05882353e-05,74.9014789 C7.05882353e-05,116.183169 33.5436,149.647958 74.9224235,149.647958 C116.301247,149.647958 149.844776,116.183169 149.844776,74.9014789 C149.844776,33.6162676 116.301247,0.151478873 74.9224235,0.151478873 L74.9224235,0.151478873 Z" id="Fill-1" fill="#191D4A" mask="url(#mask-2)"></path>
            </g>
            <path d="M96.3353294,68.5211268 C92.0859176,68.5211268 88.6412118,65.084507 88.6412118,60.8450704 C88.6412118,56.6056338 92.0859176,53.1690141 96.3353294,53.1690141 C100.584741,53.1690141 104.029447,56.6056338 104.029447,60.8450704 C104.029447,65.084507 100.584741,68.5211268 96.3353294,68.5211268 L96.3353294,68.5211268 Z M39.7941529,45.1161972 L39.7941529,92.1197183 L46.2000353,92.1197183 L60.1376824,70.2887324 L63.5859176,75.6901408 L69.7447412,85.334507 L74.0788588,92.1197183 L80.9753294,92.1197183 L73.1965059,79.9366197 L78.1059176,72.2464789 L90.7941529,92.1197183 L109.845918,92.1197183 L109.845918,45.1161972 L39.7941529,45.1161972 Z" id="Fill-4" fill="#191D4A"></path>
        </g>
    </g>
</svg>