<?xml version="1.0" encoding="UTF-8"?>
<svg width="150px" height="150px" viewBox="0 0 150 150" version="1.1" xmlns="http://www.w3.org/2000/svg" xmlns:xlink="http://www.w3.org/1999/xlink">
    <!-- Generator: Sketch 55.2 (78181) - https://sketchapp.com -->
    <title>Meet Icon</title>
    <desc>Created with Sketch.</desc>
    <defs>
        <polygon id="path-1" points="0 0 149.848129 0 149.848129 149.851729 0 149.851729"></polygon>
    </defs>
    <g id="Meet-Icon" stroke="none" stroke-width="1" fill="none" fill-rule="evenodd">
        <g>
            <mask id="mask-2" fill="white">
                <use xlink:href="#path-1"></use>
            </mask>
            <g id="Clip-2"></g>
            <path d="M127.171659,105.416435 L125.378718,87.3987882 C125.378718,80.0858471 121.023424,73.7929059 114.766129,70.9693765 C117.9426,68.6717294 120.010482,64.9340824 120.010482,60.7093765 C120.010482,53.7246706 114.349306,48.0634941 107.361071,48.0634941 C100.376365,48.0634941 94.7116588,53.7246706 94.7116588,60.7093765 C94.7116588,64.9340824 96.7834235,68.6717294 99.9598941,70.9693765 C97.8175412,71.9364353 95.8940118,73.3129059 94.2955412,74.9964353 C92.1351882,70.3729059 88.3657765,66.6493765 83.7073059,64.5493765 C87.4763647,61.8211412 89.9293059,57.3882 89.9293059,52.3799647 C89.9293059,44.0893765 83.2128353,37.3729059 74.9257765,37.3729059 C66.6351882,37.3729059 59.9187176,44.0893765 59.9187176,52.3799647 C59.9187176,57.3882 62.3716588,61.8211412 66.1410706,64.5493765 C61.4822471,66.6493765 57.7163647,70.3729059 55.5528353,74.9964353 C53.9540118,73.3129059 52.0340118,71.9364353 49.8881294,70.9693765 C53.0681294,68.6717294 55.1363647,64.9340824 55.1363647,60.7093765 C55.1363647,53.7246706 49.4720118,48.0634941 42.4873059,48.0634941 C35.5026,48.0634941 29.8375412,53.7246706 29.8375412,60.7093765 C29.8375412,64.9340824 31.9057765,68.6717294 35.0857765,70.9693765 C28.8249529,73.7929059 24.4693059,80.0858471 24.4693059,87.3987882 L22.6763647,105.416435 L127.171659,105.416435 Z M149.848129,74.9258471 C149.848129,116.305024 116.3046,149.851729 74.9257765,149.851729 C33.5434235,149.851729 -0.000105882353,116.305024 -0.000105882353,74.9258471 C-0.000105882353,33.5470235 33.5434235,-3.52941177e-05 74.9257765,-3.52941177e-05 C116.3046,-3.52941177e-05 149.848129,33.5470235 149.848129,74.9258471 L149.848129,74.9258471 Z M121.358718,87.6705529 L121.358718,87.3987882 C121.358718,83.6611412 119.901071,80.1458471 117.257541,77.5023176 C114.614012,74.8587882 111.102247,73.4046706 107.361071,73.4046706 C103.623424,73.4046706 100.108129,74.8587882 97.4646,77.5023176 C96.8469529,78.1199647 96.2967176,78.7834941 95.8128353,79.4893765 C96.1304824,80.9540824 96.2998941,82.4787882 96.2998941,84.0423176 L98.0257765,101.396435 L122.565776,101.396435 L121.394012,87.9387882 L121.358718,87.6705529 Z M107.361071,69.3387882 C112.119071,69.3387882 115.990482,65.4705529 115.990482,60.7093765 C115.990482,55.9520824 112.119071,52.0834941 107.361071,52.0834941 C102.606953,52.0834941 98.7351882,55.9520824 98.7351882,60.7093765 C98.7351882,65.4705529 102.606953,69.3387882 107.361071,69.3387882 L107.361071,69.3387882 Z M91.5740118,84.6846706 L91.5281294,84.3638471 L91.5281294,84.0423176 C91.5281294,82.6093765 91.3481294,81.2046706 90.9987176,79.8493765 C90.2646,77.0187882 88.7893059,74.4246706 86.6646,72.2999647 C83.5308353,69.1658471 79.3587176,67.4364353 74.9257765,67.4364353 C70.4893059,67.4364353 66.3210706,69.1658471 63.1834235,72.2999647 C61.0587176,74.4246706 59.5834235,77.0187882 58.8493059,79.8493765 C58.4998941,81.2046706 58.3198941,82.6093765 58.3198941,84.0423176 L58.3198941,84.3638471 L58.2775412,84.6846706 L57.2575412,96.3920824 L56.8869529,100.644671 L92.9646,100.644671 L92.5940118,96.3920824 L91.5740118,84.6846706 Z M74.9257765,62.6152588 C80.5693059,62.6152588 85.1610706,58.0234941 85.1610706,52.3799647 C85.1610706,46.7329059 80.5693059,42.1411412 74.9257765,42.1411412 C69.2787176,42.1411412 64.6869529,46.7329059 64.6869529,52.3799647 C64.6869529,58.0234941 69.2787176,62.6152588 74.9257765,62.6152588 L74.9257765,62.6152588 Z M42.4873059,73.4046706 C38.7493059,73.4046706 35.2340118,74.8587882 32.5908353,77.5023176 C29.9469529,80.1458471 28.4928353,83.6611412 28.4928353,87.3987882 L28.4928353,87.6705529 L28.4540118,87.9387882 L27.2822471,101.396435 L51.8222471,101.396435 L53.5481294,84.0423176 C53.5481294,82.4787882 53.7175412,80.9576118 54.0351882,79.4893765 C53.5516588,78.7834941 53.0014235,78.1199647 52.3837765,77.5023176 C49.7398941,74.8587882 46.2246,73.4046706 42.4873059,73.4046706 L42.4873059,73.4046706 Z M33.8575412,60.7093765 C33.8575412,55.9520824 37.7293059,52.0834941 42.4873059,52.0834941 C47.2446,52.0834941 51.1163647,55.9520824 51.1163647,60.7093765 C51.1163647,65.4705529 47.2446,69.3387882 42.4873059,69.3387882 C37.7293059,69.3387882 33.8575412,65.4705529 33.8575412,60.7093765 L33.8575412,60.7093765 Z" id="Fill-1" fill="#191D4A" mask="url(#mask-2)"></path>
        </g>
    </g>
</svg>
