<?xml version="1.0" encoding="UTF-8"?>
<svg width="150px" height="150px" viewBox="0 0 150 150" version="1.1" xmlns="http://www.w3.org/2000/svg" xmlns:xlink="http://www.w3.org/1999/xlink">
    <!-- Generator: Sketch 55.2 (78181) - https://sketchapp.com -->
    <title>Mission_Icon</title>
    <desc>Created with Sketch.</desc>
    <defs>
        <polygon id="path-1" points="0 0.907258065 150 0.907258065 150 149.939516 0 149.939516"></polygon>
    </defs>
    <g id="Mission_Icon" stroke="none" stroke-width="1" fill="none" fill-rule="evenodd">
        <g>
            <mask id="mask-2" fill="white">
                <use xlink:href="#path-1"></use>
            </mask>
            <g id="Clip-2"></g>
            <path d="M98.3159432,48.0526583 C98.3159432,48.0526583 98.3124102,48.0561685 98.3088772,48.0631889 C98.2099536,48.2562495 96.4787903,51.3662804 85.1167063,58.0145856 C84.9117931,58.130422 84.7068799,58.2532787 84.4949007,58.3726253 C84.4949007,58.3726253 84.7351438,59.2466633 85.1555692,60.7455157 C87.2364981,68.1836143 93.7336599,91.0455004 97.3055091,99.3716779 C97.8884518,100.108818 98.2382175,101.04253 98.2382175,102.053465 C98.2382175,103.011748 97.9237817,103.899827 97.3973667,104.619416 L85.0601785,121.422709 L84.9612549,121.556097 C84.1804649,122.626706 82.9156558,123.325234 81.4883294,123.346869 C79.1106296,123.384907 77.1003604,121.471852 77.0367666,119.109492 C77.0120357,118.140679 77.3052736,117.24909 77.8175566,116.51546 L77.8175566,116.51195 C77.973008,116.234644 82.8379301,107.41353 87.7346492,102.818687 C88.2575311,102.33077 88.4271145,101.583099 88.1798055,100.916163 C87.4732082,99.010128 86.0282168,95.1032833 85.0248487,92.3548023 C84.6008903,91.2069693 83.1735638,90.8103175 82.2161245,91.5720293 C77.6197094,95.2261401 66.2752903,104.180642 62.8588925,106.241125 C62.1593612,106.722022 61.3079115,106.999327 60.3893351,106.999327 C57.9692395,106.999327 56.0048991,105.05117 56.0048991,102.646688 C56.0048991,101.070611 56.8457498,99.6946156 58.1070259,98.9258834 C58.1105589,98.9223732 58.1140919,98.9223732 58.1176249,98.918863 C58.5875121,98.5573131 73.6274348,86.9947378 75.5741103,85.6082117 C75.5741103,85.6082117 70.4371482,67.0568424 69.1016793,61.6125333 C69.0804814,61.5247785 69.0592835,61.444044 69.0416186,61.3633096 C69.0416186,61.3633096 55.0933886,60.5278837 46.8191347,53.9954148 C46.5930235,53.816395 46.3704454,53.6408853 46.1266693,53.4934572 C44.8759922,52.7492963 44.0316085,51.4013823 43.9998116,49.8568974 C43.9503498,47.4945376 45.8652283,45.4867073 48.2393952,45.4094831 C49.2250983,45.3778914 50.1401418,45.6657272 50.8856019,46.1852357 C50.8856019,46.1852357 50.8891349,46.1887459 50.8891349,46.1922561 C51.2812964,46.4836021 70.3664884,60.6858424 87.8194408,45.6902985 C87.9324964,45.5990335 88.042019,45.5042583 88.1550745,45.4024627 C88.815743,44.8267911 88.9711944,43.8685084 88.5260381,43.113817 L83.2018277,34.1452742 L83.1806298,34.1101723 C82.6824787,33.2993177 82.4493016,32.3234841 82.5800221,31.284467 C82.8273312,29.3573712 84.3818452,27.7988455 86.3179217,27.5390913 C88.1268107,27.296888 89.7625833,28.1498648 90.6387639,29.5293706 L98.9624797,42.6118594 C99.389971,43.2858164 99.6337471,44.0826302 99.6337471,44.9391172 C99.6337471,46.1606644 99.12853,47.2628649 98.3159432,48.0526583 M71.7584851,31.7302615 C76.2948395,31.7302615 79.9726782,35.3843723 79.9726782,39.8914599 C79.9726782,44.4020577 76.2948395,48.0561685 71.7584851,48.0561685 C67.2185976,48.0561685 63.5407589,44.4020577 63.5407589,39.8914599 C63.5407589,35.3843723 67.2185976,31.7302615 71.7584851,31.7302615 M74.9982335,0.907258065 C33.5775019,0.907258065 0,34.268131 0,75.421632 C0,116.578643 33.5775019,149.939516 74.9982335,149.939516 C116.422498,149.939516 150,116.578643 150,75.421632 C150,34.268131 116.422498,0.907258065 74.9982335,0.907258065" id="Fill-1" fill="#191D4A" mask="url(#mask-2)"></path>
        </g>
    </g>
</svg>