<?xml version="1.0" encoding="UTF-8"?>
<svg width="175px" height="300px" viewBox="0 0 175 300" version="1.1" xmlns="http://www.w3.org/2000/svg" xmlns:xlink="http://www.w3.org/1999/xlink">
    <!-- Generator: Sketch 55.2 (78181) - https://sketchapp.com -->
    <title>Logo</title>
    <desc>Created with Sketch.</desc>
    <defs>
        <polygon id="path-1" points="0 0.231784232 173.810869 0.231784232 173.810869 75.2591701 0 75.2591701"></polygon>
        <polygon id="path-3" points="0.0325177305 0.154436642 169.12844 0.154436642 169.12844 58.7894989 0.0325177305 58.7894989"></polygon>
    </defs>
    <g id="Logo" stroke="none" stroke-width="1" fill="none" fill-rule="evenodd">
        <g>
            <polygon id="Fill-1" fill="#191D4A" points="2.88461538 218.269231 172.115385 218.269231 172.115385 193.269231 2.88461538 193.269231"></polygon>
            <g id="Group-10">
                <path d="M109.064592,148.076763 L128.865656,148.076763 C143.637642,148.076763 151.809273,146.184647 151.809273,133.259751 C151.809273,123.173029 144.266897,120.019917 129.808918,120.019917 C116.922216,120.019917 109.692606,125.0639 100.892961,133.890871 L87.3770035,147.445643 C71.3477482,163.522407 60.3475709,169.512448 41.4885284,169.512448 C17.915656,169.512448 0.313882979,159.109544 0.313882979,131.998755 C0.313882979,127.270954 0.313882979,110.246888 15.7151241,102.051037 C24.5160106,97.3232365 33.6309043,96.6921162 53.117961,96.6921162 L53.117961,120.019917 C35.5174291,120.019917 23.5727482,120.649793 23.5727482,133.259751 C23.5727482,143.978838 30.8023582,145.86971 39.2879965,145.86971 C52.1759397,145.86971 57.8317908,141.141909 66.3186702,132.313693 L77.6340957,120.649793 C98.0631738,99.5290456 109.692606,95.1161826 129.808918,95.1161826 C142.695621,95.1161826 174.440124,100.160166 174.440124,134.205809 C174.440124,137.988797 174.126117,149.021577 166.896507,158.479668 C156.839592,171.719502 139.865833,172.03444 125.093848,172.03444 L109.064592,172.03444 L109.064592,148.076763 Z" id="Fill-2" fill="#191D4A"></path>
                <g id="Group-6">
                    <mask id="mask-2" fill="white">
                        <use xlink:href="#path-1"></use>
                    </mask>
                    <g id="Clip-5"></g>
                    <path d="M36.1454433,25.766639 C27.9738121,25.766639 20.7442021,26.7126971 20.7442021,37.4305394 C20.7442021,49.7243154 30.1731028,50.3541909 38.9739894,50.3541909 L71.6617553,50.3541909 L71.6617553,25.766639 L36.1454433,25.766639 Z M131.694202,0.231784232 C159.354131,0.231784232 173.810869,11.8956846 173.810869,38.6902905 C173.810869,58.2351037 165.953245,75.2591701 139.237819,75.2591701 L38.9739894,75.2591701 C16.6583865,75.2591701 -0.000124113475,63.9102075 -0.000124113475,37.4305394 C-0.000124113475,14.7326141 11.3153014,0.231784232 38.030727,0.231784232 L92.4060816,0.231784232 L92.4060816,50.3541909 L139.865833,50.3541909 C144.894911,50.3541909 153.381791,49.7243154 153.381791,38.6902905 C153.381791,25.766639 142.380372,25.766639 137.98055,25.766639 L108.435337,25.766639 L108.435337,0.231784232 L131.694202,0.231784232 Z" id="Fill-4" fill="#191D4A" mask="url(#mask-2)"></path>
                </g>
                <g id="Group-9" transform="translate(2.482270, 239.965688)">
                    <mask id="mask-4" fill="white">
                        <use xlink:href="#path-3"></use>
                    </mask>
                    <g id="Clip-8"></g>
                    <path d="M0.0325177305,0.154436642 L25.1779078,0.154436642 C25.1779078,18.6087935 40.0938652,33.5702043 58.4949291,33.5702043 L169.12844,33.5702043 L169.12844,58.7901213 L58.4949291,58.7901213 C26.2068085,58.7901213 0.0325177305,32.5382541 0.0325177305,0.154436642" id="Fill-7" fill="#191D4A" mask="url(#mask-4)"></path>
                </g>
            </g>
        </g>
    </g>
</svg>